<svg xmlns="http://www.w3.org/2000/svg" viewBox="0 0 100 100">
  <defs>
    <linearGradient id="grad" x1="0%" y1="0%" x2="100%" y2="100%">
      <stop offset="0%" style="stop-color:#fb923c;stop-opacity:1" />
      <stop offset="100%" style="stop-color:#f43f5e;stop-opacity:1" />
    </linearGradient>
  </defs>
  <rect width="100" height="100" rx="20" fill="url(#grad)"/>
  <path d="M50 20c-8 0-15 3-20 8-3 3-5 7-5 12 0 8 5 14 12 17v18c0 3 2 5 5 5h16c3 0 5-2 5-5V57c7-3 12-9 12-17 0-5-2-9-5-12-5-5-12-8-20-8z" fill="white"/>
  <rect x="35" y="60" width="30" height="4" rx="2" fill="white" opacity="0.8"/>
</svg>
